<?xml version="1.0" encoding="UTF-8"?>
<svg id="Livello_1" data-name="Livello 1" xmlns="http://www.w3.org/2000/svg" viewBox="0 0 1080 1080">
  <defs>
    <style>
      .cls-1 {
        fill: none;
        stroke: #575756;
        stroke-miterlimit: 10;
        stroke-width: 4px;
      }

      .cls-2 {
        fill: #8e6bac;
      }
    </style>
  </defs>
  <g>
    <path class="cls-2" d="M803.08,864.09c21.5-26.93,13.66-40.48-3-43.78-9.35-1.86-21.5-.5-32.74,3.57-36.66,13.26-108.2,77.28-176.96,98.66-27.82,8.66-69.25,10.66-98.14,4.73-72.96-15.01-152.13-88.76-191.35-103.38-8.93-3.34-18.42-4.88-26.65-4.44-20.46,1.1-33.04,14.65-9.09,44.65,2.51,3.15,5.58,6.03,9.09,8.63,24.73,18.36,71.04,22.36,98.14,6.56,28.71,10.06,71.78,58.29,120.11,74.3,28.17,9.33,67.81,7.34,94.75-4.43,43.63-19.07,82.19-60.63,108.62-69.87,29.51,17.21,81.83,10.94,104.23-11.78,1.08-1.1,2.07-2.24,3-3.41Z"/>
    <path class="cls-2" d="M292.51,411.05c5.38-80.58,6.99-165.9,2.76-255.26l-4.77-1.16c2.37,90.59-1.16,175.28-8.49,254.23"/>
    <path class="cls-2" d="M217.48,599.5c-35.63,79.97-65.48,125.55-74.03,170.88v31.9c.2.78.36,1.56.59,2.33,16.4,54.17,74.98,73.38,130.18,91.83,4.43,1.47,8.82,2.95,13.18,4.44l1.61-3.89c-5.02-2.16-9.95-4.33-14.79-6.55-45.61-21.01-82.35-46.08-96.09-91.47-11.21-37.04,34.18-111.96,72.46-220.7"/>
    <path class="cls-2" d="M799.03,411.06c-7.79-80.99-11.63-168.07-9.18-261.43l-4.8,1.16c-4.36,92.29-2.49,180.29,3.34,263.2"/>
    <path class="cls-2" d="M830.09,579.17c38.17,108,83.25,182.92,72.1,219.79-14.34,47.38-53.72,72.62-102.12,94.2-2.88,1.29-5.81,2.55-8.76,3.82l1.61,3.89,7.15-2.41c56.89-19.12,119.21-37.71,136.2-93.86.24-.77.43-1.57.63-2.37v-31.88c-8.61-45.55-38.03-89.62-73.8-170.15"/>
  </g>
  <path class="cls-1" d="M917.73,596.4c-5.35,15.04-15.45,25.84-29.72,32.73-6.37,3.07-14.5,3.54-15.2-4.67-2.13-25.19-22.18-33.9-39.66-43.32-58.61-31.59-121.27-53.3-185.87-68.61-33.75-8-68.29-14.62-103.05-15.59-37.53-1.05-74.55,7.1-110.84,15.6-70.65,16.54-138.96,39.97-201.81,77.41-11.62,6.92-20.18,14.29-23.67,28.22-3.65,14.58-11.05,16.4-23.07,7.87-16.17-11.47-25.85-25.19-20.55-46.86,9.72-39.77,18.21-79.74,36-117.1,14.14-29.71,35.43-49.37,68.95-52.76,12.15-1.23,24.89,2.65,35.67,6.68,35.05,13.12,69.23,6.4,103.32-1,24.88-5.4,49.47-10.79,75.04-12.73,15.12-1.15,30.52-4.38,45.28-2.05,20.35,3.21,40.95,4.14,61,3.51,44.92-1.4,86.54,13.89,129.77,20.67,17.43,2.73,34.47-4.08,51.51-7.55,19.15-3.89,37.9-9.25,57.88-3.25,29.68,8.92,43.31,32.5,54.49,58,16.4,37.4,25.22,77.1,32.78,117.05.42,2.2,1.69,6.14,1.53,8.39"/>
</svg>